<?xml version="1.0" standalone="no"?><svg xmlns="http://www.w3.org/2000/svg" viewBox="0 0 1440 320"><path fill="#273036" fill-opacity="1" d="M0,224L10.9,197.3C21.8,171,44,117,65,96C87.3,75,109,85,131,106.7C152.7,128,175,160,196,176C218.2,192,240,192,262,213.3C283.6,235,305,277,327,266.7C349.1,256,371,192,393,160C414.5,128,436,128,458,144C480,160,502,192,524,176C545.5,160,567,96,589,69.3C610.9,43,633,53,655,69.3C676.4,85,698,107,720,128C741.8,149,764,171,785,165.3C807.3,160,829,128,851,117.3C872.7,107,895,117,916,133.3C938.2,149,960,171,982,197.3C1003.6,224,1025,256,1047,245.3C1069.1,235,1091,181,1113,160C1134.5,139,1156,149,1178,154.7C1200,160,1222,160,1244,181.3C1265.5,203,1287,245,1309,224C1330.9,203,1353,117,1375,85.3C1396.4,53,1418,75,1429,85.3L1440,96L1440,320L1429.1,320C1418.2,320,1396,320,1375,320C1352.7,320,1331,320,1309,320C1287.3,320,1265,320,1244,320C1221.8,320,1200,320,1178,320C1156.4,320,1135,320,1113,320C1090.9,320,1069,320,1047,320C1025.5,320,1004,320,982,320C960,320,938,320,916,320C894.5,320,873,320,851,320C829.1,320,807,320,785,320C763.6,320,742,320,720,320C698.2,320,676,320,655,320C632.7,320,611,320,589,320C567.3,320,545,320,524,320C501.8,320,480,320,458,320C436.4,320,415,320,393,320C370.9,320,349,320,327,320C305.5,320,284,320,262,320C240,320,218,320,196,320C174.5,320,153,320,131,320C109.1,320,87,320,65,320C43.6,320,22,320,11,320L0,320Z"></path></svg>